<svg width="20" height="20" viewBox="0 0 20 20" fill="none" xmlns="http://www.w3.org/2000/svg">
<path fill-rule="evenodd" clip-rule="evenodd" d="M7.96083 2.00376C9.17845 3.53217 10.2698 5.16581 11.2191 6.88887C12.9359 6.24754 14.5529 5.40165 16.0406 4.38083C14.5335 2.76136 12.385 1.75 10 1.75C9.29556 1.75 8.61249 1.83812 7.96083 2.00376ZM16.9603 5.56873C15.4038 6.64497 13.7133 7.54135 11.9191 8.22782C12.2046 8.80419 12.4745 9.38963 12.7284 9.9836C13.3901 9.88595 14.0672 9.83537 14.7561 9.83537C15.9608 9.83537 17.1303 9.9902 18.2453 10.2813C18.2484 10.188 18.25 10.0942 18.25 10C18.25 8.36825 17.777 6.84858 16.9603 5.56873ZM18.0567 11.784C17.0072 11.4918 15.9005 11.3354 14.7561 11.3354C14.265 11.3354 13.7806 11.3642 13.3046 11.4203C13.9424 13.1202 14.4508 14.8834 14.8176 16.6981C16.4357 15.5321 17.6135 13.795 18.0567 11.784ZM13.445 17.4987C13.0722 15.4943 12.5192 13.5532 11.8035 11.6928C8.94862 12.3976 6.48705 14.1016 4.81091 16.4141C6.22864 17.5627 8.03341 18.25 10 18.25C11.2309 18.25 12.3973 17.9809 13.445 17.4987ZM3.72621 15.3577C5.55878 12.9121 8.1869 11.0952 11.2272 10.2916C10.9947 9.76139 10.7488 9.23838 10.4899 8.72303C8.24306 9.42213 5.8543 9.79878 3.37805 9.79878C2.83229 9.79878 2.29071 9.78048 1.75388 9.74445C1.7513 9.8293 1.75 9.91449 1.75 10C1.75 12.0452 2.49345 13.9158 3.72621 15.3577ZM1.93518 8.2531C2.41215 8.2834 2.89325 8.29878 3.37805 8.29878C5.6001 8.29878 7.74622 7.97553 9.77222 7.37347C8.81187 5.66386 7.70448 4.04778 6.46714 2.54237C4.18532 3.62535 2.48019 5.72469 1.93518 8.2531ZM6.40626 0.933888C7.51932 0.49233 8.73227 0.25 10 0.25C13.1506 0.25 15.9523 1.74521 17.7335 4.06165C18.9979 5.70598 19.75 7.76622 19.75 10C19.75 10.4635 19.7176 10.9198 19.6549 11.3668C19.2164 14.49 17.3001 17.1359 14.6384 18.5779C13.2583 19.3257 11.6776 19.75 10 19.75C7.40587 19.75 5.04698 18.7359 3.30076 17.084C1.42304 15.3077 0.25 12.7902 0.25 10C0.25 9.61005 0.27293 9.22514 0.31758 8.8466C0.743739 5.23368 3.14306 2.22841 6.40626 0.933888Z" fill="white"/>
</svg>
