<svg width="24" height="24" viewBox="0 0 24 24" fill="none" xmlns="http://www.w3.org/2000/svg">
<path d="M21.81 3.94C20.27 7.78 16.41 13 13.18 15.59L11.21 17.17C10.96 17.35 10.71 17.51 10.43 17.62C10.43 17.44 10.42 17.24 10.39 17.05C10.28 16.21 9.9 15.43 9.23 14.76C8.55 14.08 7.72 13.68 6.87 13.57C6.67 13.56 6.47 13.54 6.27 13.56C6.38 13.25 6.55 12.96 6.76 12.72L8.32 10.75C10.9 7.52 16.14 3.64 19.97 2.11C20.56 1.89 21.13 2.05 21.49 2.42C21.87 2.79 22.05 3.36 21.81 3.94Z" stroke="#fff" stroke-width="1.5" stroke-linecap="round" stroke-linejoin="round"/>
<path d="M10.43 17.6201C10.43 18.7201 10.01 19.77 9.22 20.57C8.61 21.18 7.78 21.6001 6.79 21.7301L4.33 22.0001C2.99 22.1501 1.84 21.01 2 19.65L2.27 17.1901C2.51 15.0001 4.34 13.6001 6.28 13.5601C6.48 13.5501 6.69 13.56 6.88 13.57C7.73 13.68 8.56 14.0701 9.24 14.7601C9.91 15.4301 10.29 16.21 10.4 17.05C10.41 17.24 10.43 17.4301 10.43 17.6201Z" stroke="#fff" stroke-width="1.5" stroke-linecap="round" stroke-linejoin="round"/>
<path d="M14.24 14.47C14.24 11.86 12.12 9.73999 9.51 9.73999" stroke="#fff" stroke-width="1.5" stroke-linecap="round" stroke-linejoin="round"/>
</svg>
